<svg width="48" height="48" viewBox="0 0 48 48" fill="none" xmlns="http://www.w3.org/2000/svg">
<path d="M20.8148 19.3432C19.3194 19.3433 18.6716 18.2634 18.3753 17.5536C17.0957 18.1789 15.9974 18.4376 15.901 18.4596C15.6475 18.5172 15.3958 18.359 15.3381 18.1059C15.2803 17.8528 15.4387 17.6008 15.6918 17.543C15.7228 17.5358 16.801 17.279 18.0308 16.6671C17.3093 14.7315 18.093 12.5525 19.9091 11.5903C21.1985 10.8172 22.839 12.2444 22.301 13.6327C21.7482 15.2291 20.4752 16.348 19.2085 17.1036C19.5251 17.9108 20.0376 18.6401 21.4302 18.329C21.9751 18.2074 22.3835 17.7528 22.4234 17.2236C22.361 16.7211 23.0689 16.476 23.3091 16.9311C23.555 17.3773 24.2484 18.2868 24.815 18.2434C25.2503 18.2106 25.7073 17.6039 26.1018 16.535C26.2211 16.176 26.7499 16.1207 26.9407 16.4473C27.1298 16.7456 27.7981 17.5878 28.3618 17.5379C28.7127 17.507 29.0748 17.0785 29.3813 16.3312C29.4987 16.0195 29.9425 15.9391 30.1614 16.1906C30.5281 16.5557 31.2309 16.9367 31.8418 16.1463C32.0065 15.9455 32.3025 15.9161 32.5034 16.0807C32.7043 16.2452 32.7336 16.5415 32.5691 16.7423C32.1403 17.2653 31.6432 17.5389 31.0914 17.5552C30.6518 17.5691 30.2714 17.4129 29.989 17.2418C29.5682 18.0081 29.0493 18.4223 28.4419 18.4747C27.7153 18.538 27.0833 18.0533 26.6655 17.6111C26.1727 18.6138 25.5859 19.1292 24.8833 19.181C24.1332 19.2358 23.497 18.7129 23.0667 18.2139C22.6503 18.9817 21.6581 19.3694 20.8148 19.3432V19.3432ZM20.3491 12.4211C18.9668 13.0821 18.3907 14.7422 18.865 16.2042C19.9347 15.5423 20.9695 14.6046 21.4124 13.3251C21.5861 12.7756 20.9583 12.1297 20.3491 12.4211Z" fill="#1DCE1D"/>
<path d="M32.7431 8.5625H15.9193C15.6597 8.5625 15.4492 8.35199 15.4492 8.09241C15.4492 7.83282 15.6597 7.62231 15.9193 7.62231H32.7431C33.0027 7.62231 33.2132 7.83282 33.2132 8.09241C33.2132 8.35199 33.0027 8.5625 32.7431 8.5625Z" fill="#1DCE1D"/>
<path d="M40.6412 2.45435H40.6191C40.6264 2.45435 40.6334 2.45483 40.6407 2.45493L40.6412 2.45435Z" fill="#1DCE1D"/>
<path d="M6.44708 29.2647C6.86574 29.5468 6.9763 30.1146 6.69397 30.5328C6.41163 30.951 5.84338 31.0612 5.42472 30.7791C5.00606 30.497 4.89549 29.9292 5.17783 29.511C5.46017 29.0928 6.02841 28.9825 6.44708 29.2647Z" fill="#1DCE1D"/>
<path d="M41.6448 29.6293C41.2075 29.8816 41.0577 30.4402 41.3101 30.8771C41.5626 31.314 42.1218 31.4637 42.5591 31.2115C42.9965 30.9592 43.1463 30.4005 42.8938 29.9636C42.6414 29.5267 42.0821 29.3771 41.6448 29.6293Z" fill="#1DCE1D"/>
<path d="M45.7803 30.2096L39.5153 19.436C39.0671 18.6651 38.0739 18.401 37.3017 18.8466L34.4423 20.4972C33.839 20.8329 33.5132 21.5767 33.6671 22.2459L31.2273 22.8617C30.5907 23.0224 29.9279 22.9898 29.3103 22.7674L25.9118 21.5438C24.701 21.1077 23.3764 21.2425 22.2779 21.9133L19.1135 23.8461C18.3359 23.5309 17.6023 23.3313 16.9309 23.255C16.2029 23.1724 15.4937 22.9618 14.8524 22.6442C15.1628 21.9539 14.9064 21.0711 14.2679 20.6574L11.5305 18.8114C10.7912 18.3127 9.78208 18.5069 9.28115 19.2447L2.28056 29.5547C1.77408 30.2684 1.98092 31.3392 2.71633 31.8134L5.4533 33.6593C6.01477 34.0392 6.7515 34.0227 7.29718 33.638C7.80789 34.2735 8.40123 34.8284 9.07064 35.2941L8.5149 36.0878C7.83177 37.0635 8.06973 38.4129 9.04535 39.096C9.42161 39.3594 9.85344 39.4859 10.2812 39.4859C10.3329 39.4859 10.3845 39.4834 10.436 39.4797C10.2653 40.2999 10.5823 41.1817 11.3109 41.6918C11.8727 42.0829 12.5518 42.1779 13.1852 41.9856C13.1912 42.0666 13.2012 42.1477 13.2165 42.2288C13.3244 42.8045 13.6521 43.3008 14.1386 43.6261C14.8812 44.1408 15.8732 44.1247 16.604 43.6163C16.7463 44.0659 17.0284 44.4555 17.4213 44.7306C18.386 45.409 19.7424 45.1822 20.4295 44.2001L20.6393 43.9006L22.8438 45.5851C23.7556 46.3011 25.0279 46.0952 25.7689 45.1816C26.0899 44.7852 26.2571 44.3131 26.278 43.8384C27.2066 44.5324 28.629 44.3415 29.3415 43.4242C29.6423 43.0528 29.814 42.6059 29.8404 42.138L29.8757 42.1667C30.8414 42.9488 32.2635 42.7993 33.0457 41.8337C33.3957 41.4014 33.5591 40.8777 33.5462 40.3608C34.4208 40.6499 35.423 40.3892 36.0366 39.632C36.813 38.6738 36.6771 37.2478 35.7373 36.4565L24.3954 26.712C24.2739 26.6076 24.1077 26.5724 23.9544 26.6181L21.3394 27.4001C21.2489 27.4272 21.1686 27.4809 21.1091 27.5543L19.409 29.6487C18.3428 30.9624 16.4735 31.3605 14.9646 30.5952C14.7133 30.4759 14.6275 30.1293 14.794 29.9064L17.5179 26.0571C17.6291 25.8999 17.7688 25.7693 17.9332 25.6689L22.7682 22.7157C23.6222 22.1941 24.652 22.0893 25.5936 22.4284L28.9921 23.6521C29.7864 23.9381 30.6391 23.98 31.4577 23.7734L34.0783 23.1119L35.5349 25.6165L36.9915 28.1211L39.9804 33.2607C39.394 33.9312 38.488 34.7648 37.2441 35.3539C37.0095 35.4651 36.9093 35.7453 37.0205 35.98C37.132 36.217 37.4172 36.3138 37.6465 36.2037C38.7334 35.6889 39.7391 34.9324 40.5808 34.0003C41.0926 34.3622 41.7793 34.4019 42.3293 34.0826L45.1882 32.4323C45.9549 32.0107 46.2358 30.9568 45.7803 30.2096ZM5.97904 32.8798L3.24208 31.034C2.93239 30.8343 2.84504 30.3835 3.05837 30.0829L10.059 19.7729C10.2708 19.4605 10.6976 19.3827 11.0048 19.5908L13.7421 21.4369C14.0519 21.6365 14.1387 22.0882 13.9254 22.3886L6.92534 32.6971C6.71445 33.0076 6.28996 33.0895 5.97904 32.8798ZM11.0908 38.2403C10.6866 38.61 10.0301 38.6494 9.58455 38.3258C9.0336 37.94 8.89925 37.178 9.28501 36.627L10.1339 35.4147C10.5219 34.8601 11.2879 34.7321 11.8327 35.1151C12.3032 35.4446 12.4686 36.0482 12.267 36.5606L11.0908 38.2403ZM13.5488 40.6221C13.163 41.1731 12.4009 41.3074 11.8501 40.9217C11.2992 40.5358 11.1647 39.7739 11.5505 39.223L14.0148 35.7037C14.4029 35.149 15.1688 35.021 15.7136 35.4041C16.2643 35.7897 16.3988 36.5513 16.0136 37.1022L13.5488 40.6221ZM16.3678 42.5451C15.9908 43.0874 15.2375 43.23 14.6888 42.8632C14.1082 42.5132 13.9388 41.6786 14.34 41.1315L17.3218 36.8732C17.7076 36.3222 18.4695 36.1878 19.0216 36.5744L19.033 36.5823C19.5821 36.9667 19.7175 37.7273 19.3349 38.2777L16.3678 42.5451ZM19.6592 43.661C19.2733 44.2118 18.5114 44.3462 17.9603 43.9606C17.5118 43.6577 17.3216 43.0425 17.5161 42.5405L19.2275 40.0789C19.6458 39.6972 20.2807 39.6527 20.7469 39.981C21.2919 40.3459 21.4337 41.1503 21.0465 41.6797L19.6592 43.661ZM17.4429 24.8666C17.1687 25.034 16.9357 25.2519 16.7502 25.514L14.0263 29.3634C13.528 30.0337 13.7857 31.0736 14.5393 31.4338C16.4404 32.3977 18.7955 31.8962 20.1389 30.2412L21.7477 28.2593L23.9777 27.5925L35.128 37.1727C35.6823 37.6394 35.7621 38.4772 35.3058 39.0405C34.8408 39.6143 33.9955 39.7031 33.4214 39.2383L27.5911 34.5169C27.3893 34.3535 27.0934 34.3846 26.93 34.5864C26.7666 34.7881 26.7977 35.0841 26.9994 35.2475L32.1203 39.3944L32.1212 39.3951C32.6836 39.8511 32.7706 40.6795 32.3149 41.2422C31.8591 41.8051 31.0304 41.8922 30.4674 41.4362L24.7042 36.7691C24.5024 36.6057 24.2064 36.6368 24.043 36.8386C23.8796 37.0403 23.9108 37.3363 24.1125 37.4997L28.4166 40.9852C28.9745 41.4181 29.0665 42.2932 28.6108 42.8327C28.1778 43.3907 27.303 43.4823 26.7633 43.0268L23.666 40.5186C23.4643 40.3552 23.1683 40.3864 23.0049 40.5881C22.8415 40.7899 22.8726 41.0858 23.0744 41.2493L24.8383 42.6777L24.8394 42.6785C25.4201 43.1509 25.5093 44.0082 25.0383 44.59C24.6138 45.1142 23.9065 45.2277 23.4213 44.8433L21.1791 43.1299L21.817 42.219C22.5026 41.2817 22.2513 39.857 21.2865 39.2108C20.9253 38.9578 20.5127 38.8315 20.1018 38.8218L20.1071 38.8143C20.7846 37.8397 20.5448 36.493 19.5714 35.8113L19.5601 35.8034C18.7986 35.2703 17.8094 35.2983 17.0869 35.8002C16.9545 35.3436 16.6721 34.9273 16.2533 34.6339C15.2778 33.9508 13.9282 34.1889 13.2451 35.1644L13.1391 35.3157C12.9889 34.9367 12.7305 34.5959 12.3723 34.3451C11.5173 33.7465 10.3751 33.8554 9.64594 34.5481C8.98565 34.0947 8.40622 33.5458 7.91826 32.9089L14.3465 23.4426C15.1082 23.8334 15.956 24.0906 16.8252 24.1894C17.2195 24.2341 17.6423 24.3288 18.0892 24.472L17.4429 24.8666ZM44.718 31.6181L41.8591 33.2684C41.5333 33.4579 41.1155 33.3402 40.9278 33.0201L37.7955 27.6341L36.3263 25.1969L34.6633 22.248C34.4714 21.9334 34.5895 21.489 34.9124 21.3115L37.7718 19.661C38.091 19.475 38.5132 19.5817 38.7026 19.9086L44.9676 30.6823C45.0596 30.8404 45.1824 31.3895 44.718 31.6181Z" fill="#1DCE1D"/>
<path d="M40.8221 1.99008V1.98425H13.0008C11.7048 1.98425 10.6504 3.03867 10.6504 4.33471V16.2974C10.6504 16.557 10.8609 16.7675 11.1205 16.7675C11.3801 16.7675 11.5906 16.557 11.5906 16.2974V4.33471C11.5906 3.55708 12.2232 2.92443 13.0008 2.92443H38.1767C37.4395 3.5898 36.9755 4.55086 36.9755 5.61806V13.9803C36.9755 14.2399 37.186 14.4504 37.4456 14.4504C37.7052 14.4504 37.9157 14.2399 37.9157 13.9803V10.4317H43.7959C44.0555 10.4317 44.266 10.2212 44.266 9.9616V5.61806C44.2659 3.68175 42.7388 2.09472 40.8221 1.99008V1.99008ZM43.3257 9.49151H37.9157V5.61806C37.9157 4.13276 39.1292 2.92443 40.6207 2.92443C42.1123 2.92443 43.3258 4.13276 43.3258 5.61806V9.49151H43.3257Z" fill="#1DCE1D"/>
<path d="M37.4451 17.0535C37.7826 17.0535 38.0562 16.7799 38.0562 16.4424C38.0562 16.1049 37.7826 15.8313 37.4451 15.8313C37.1076 15.8313 36.834 16.1049 36.834 16.4424C36.834 16.7799 37.1076 17.0535 37.4451 17.0535Z" fill="#1DCE1D"/>
</svg>